<svg id="Warstwa_1" data-name="Warstwa 1" xmlns="http://www.w3.org/2000/svg" width="1280" height="720" viewBox="0 0 1280 720"><title>room</title><polygon points="858.5 157.46 858.5 410.12 1278.5 720 1278.5 0 858.5 157.46" fill="#f9f9f9"/><polygon points="414.51 410.12 1.5 720 1281.5 720 858.5 410.12 414.51 410.12" fill="#f4f4f4"/><polygon points="414.51 157.46 1.5 0 1271.52 0 858.5 157.46 414.51 157.46" fill="#dddbdb"/><polygon points="414.51 157.46 414.51 410.12 1.5 720 1.5 0 414.51 157.46" fill="#f9f9f9"/><rect x="414.51" y="157.46" width="443.98" height="252.66" fill="#efefef"/><g id="mr-triangle"><polyline id="leg-right" points="596.13 384.15 596.13 424.49 584.33 428.9" fill="none" stroke="#898989" stroke-miterlimit="10" stroke-width="4.91"/><polyline id="leg-left" points="672.7 384.15 672.7 424.49 684.5 428.9" fill="none" stroke="#898989" stroke-miterlimit="10" stroke-width="4.91"/><g id="body"><rect id="button" x="622.96" y="280.18" width="22.91" height="12.74" fill="#ff7bac"/><polygon id="hat" points="651.26 292.92 617.56 292.92 634.41 265.94 651.26 292.92" fill="#fff" stroke="#898989" stroke-miterlimit="10" stroke-width="4.91"/><polygon id="shape" points="714.5 394.15 554.33 394.15 617.56 292.92 651.26 292.92 714.5 394.15" fill="#fff" stroke="#898989" stroke-miterlimit="10" stroke-width="4.91"/><path id="saliva" d="M621.5,371.21S622.63,386,626.13,386s3.38-16.41,3.38-16.41,1.81,6.54,4.91,6.91,5-6.91,5-6.91.5,4.64,3.13,4.64,5.13-7.86,5.13-7.86,1,12.13,4,11.88,3.09-10.87,3.09-10.87" fill="#83ce3e"/><path id="mouth-2" d="M614.08,374.18s7.06-4.7,21.88-5.74a97.84,97.84,0,0,1,21.88,1.1" fill="none" stroke="#898989" stroke-miterlimit="10" stroke-width="4.91"/><path id="mouth" d="M618.57,366.26s.72,13.67,15.84,13.67,15.84-13.67,15.84-13.67" fill="none" stroke="#898989" stroke-miterlimit="10" stroke-width="4.91"/><circle cx="584.33" cy="375.82" r="6.28" fill="#ff7bac"/><circle cx="684.5" cy="375.82" r="6.28" fill="#ff7bac"/><path id="hand-right" d="M604.79,313.36c-98.94-16-70.22,80.79-70.22,80.79" fill="none" stroke="#898989" stroke-miterlimit="10" stroke-width="4.91"/><path id="hand-left-3" d="M664,313.36c98.94-16,8.94-106-26.52-28.78" fill="none" stroke="#898989" stroke-miterlimit="10" stroke-width="4.91"/><path id="hand-left-1" d="M734.26,394.15S763,297.39,664,313.36" fill="none" stroke="#898989" stroke-miterlimit="10" stroke-width="4.91"/><path id="hand-left-2" d="M693.5,223.83c52.5-23.5,93,98-29.46,89.54" fill="none" stroke="#898989" stroke-miterlimit="10" stroke-width="4.91"/><g id="eyes"><g id="eyes-closed"><path d="M604.79,349.78a9.29,9.29,0,1,1,18.57,0" fill="none" stroke="#898989" stroke-miterlimit="10" stroke-width="4.91"/><path d="M645.46,349.78a9.29,9.29,0,0,1,18.57,0" fill="none" stroke="#898989" stroke-miterlimit="10" stroke-width="4.91"/></g><g id="eyes-opened"><g id="eyes-2" data-name="eyes"><circle cx="614.08" cy="345.78" r="9.29" fill="#fff" stroke="#898989" stroke-miterlimit="10" stroke-width="4.91"/><circle cx="654.75" cy="345.78" r="9.29" fill="#fff" stroke="#898989" stroke-miterlimit="10" stroke-width="4.91"/></g><g id="irises"><circle cx="614.08" cy="345.78" r="3.09" fill="#898989"/><circle cx="654.75" cy="345.78" r="3.09" fill="#898989"/></g></g><g id="eyes-active"><circle cx="614.08" cy="345.78" r="9.95" fill="#83ce3e"/><circle cx="654.75" cy="345.78" r="9.95" fill="#83ce3e"/></g></g></g><ellipse id="shadow" cx="634.41" cy="428.9" rx="69.94" ry="9.82" fill="#898989" opacity="0.2"/></g></svg>