<svg id="Warstwa_1" data-name="Warstwa 1" xmlns="http://www.w3.org/2000/svg" viewBox="0 0 1280 720"><defs><style>.cls-1{fill:#212121;}.cls-2{fill:#e5e5e5;}.cls-3{fill:#e8f1f9;}.cls-4{fill:#a1e2a4;}.cls-5{fill:#fff;}.cls-6{fill:none;stroke:#898989;stroke-miterlimit:10;stroke-width:10px;}</style></defs><title>space</title><g id="sky"><rect class="cls-1" x="-21" y="-43" width="1329.14" height="788"/><circle class="cls-2" cx="359" cy="329.52" r="6.79"/><circle class="cls-2" cx="65.75" cy="323.34" r="8"/><circle class="cls-2" cx="65.75" cy="33.56" r="6.16"/><circle class="cls-2" cx="606.93" cy="257" r="5.68"/><circle class="cls-2" cx="395.87" cy="215.14" r="5.2"/><circle class="cls-2" cx="192.55" cy="323.34" r="6.32"/><circle class="cls-2" cx="144.89" cy="339.13" r="5.8"/><circle class="cls-2" cx="267.63" cy="115.19" r="7.11"/><circle class="cls-2" cx="286.78" cy="60" r="8.16"/><circle class="cls-2" cx="104.79" cy="119.09" r="3.39"/><circle class="cls-2" cx="152.09" cy="434.15" r="7.3"/><circle class="cls-2" cx="199.1" cy="533.4" r="3.91"/><circle class="cls-2" cx="224.33" cy="577.74" r="2.64"/><circle class="cls-2" cx="178.92" cy="626.46" r="3.85"/><circle class="cls-2" cx="281.23" cy="663.07" r="2.77"/><circle class="cls-2" cx="392.44" cy="670.31" r="6.52"/><circle class="cls-2" cx="466.52" cy="640.24" r="9.36"/><circle class="cls-2" cx="602.03" cy="614.43" r="6.54"/><circle class="cls-2" cx="768.45" cy="687.94" r="4.64"/><circle class="cls-2" cx="816.75" cy="640.4" r="5.38"/><circle class="cls-2" cx="961.76" cy="414.89" r="6.11"/><circle class="cls-2" cx="927.92" cy="331.37" r="8.4"/><circle class="cls-2" cx="991.09" cy="220.97" r="6.65"/><circle class="cls-2" cx="1102.71" cy="114.11" r="7.47"/><circle class="cls-2" cx="1184.71" cy="100.14" r="6.8"/><circle class="cls-2" cx="1170.9" cy="198.35" r="6.68"/><circle class="cls-2" cx="1142.65" cy="340.93" r="4.55"/><circle class="cls-2" cx="1256.47" cy="510.28" r="4.52"/><circle class="cls-2" cx="1266.53" cy="569.57" r="5.83"/><circle class="cls-2" cx="1189.58" cy="336.94" r="6.48"/><circle class="cls-2" cx="779.91" cy="305" r="6.82"/><circle class="cls-2" cx="883.38" cy="97.31" r="8.3"/><circle class="cls-2" cx="722.82" cy="35.11" r="6.25"/><circle class="cls-2" cx="662.32" cy="17.33" r="5.84"/><circle class="cls-2" cx="1131.69" cy="499.73" r="6.03"/><circle class="cls-2" cx="1148.95" cy="531.27" r="6.21"/><circle class="cls-2" cx="1142.94" cy="604.67" r="6.04"/><circle class="cls-2" cx="722.82" cy="483.83" r="5.09"/><circle class="cls-2" cx="991.72" cy="619.18" r="4.96"/><circle class="cls-2" cx="957.12" cy="643.02" r="4.87"/><circle class="cls-2" cx="316.52" cy="502.08" r="5.07"/><circle class="cls-2" cx="371.13" cy="469.18" r="4.47"/><circle class="cls-2" cx="422.28" cy="394.24" r="4.47"/></g><g id="earth"><g id="ścieżka"><g id="land"><path class="cls-3" d="M687.91,387a54.93,54.93,0,1,0-30,25Z"/><path class="cls-4" d="M687.91,387a21.58,21.58,0,0,0-14.34-14.79,21.32,21.32,0,0,0-5.45-1c0-.54.06-1.08.06-1.63,0-.72,0-1.42-.1-2.12a21.57,21.57,0,0,0-43,2.12,21.85,21.85,0,0,0,.38,4.07h0a21.6,21.6,0,0,0,20.2,17.47A24.19,24.19,0,0,0,657.9,412Z"/><path class="cls-4" d="M654.74,314.87a21.58,21.58,0,0,1-24.81,17.77q-.79-.14-1.59-.33a21.57,21.57,0,0,1-39.33,7A55.05,55.05,0,0,1,654.58,307,21.4,21.4,0,0,1,654.74,314.87Z"/></g><path class="cls-3" d="M647.85,357.88c0,2.74-2.75,2-5.5,1.9a2.8,2.8,0,1,1-4.57,2.16v-.13c-2.8,1.86-5.63,4.06-5.63,2.26,0-2.84,2.68-8.81,5.52-8.81S647.85,355.05,647.85,357.88Z"/><g id="earth-clouds"><path class="cls-5" d="M627,371.84a8.69,8.69,0,0,1-.73-13.25,6.87,6.87,0,0,1,10.5-8.07l0,0A7.88,7.88,0,1,1,645.94,363a5,5,0,0,1-6.89,7.18A8.68,8.68,0,0,1,627,371.84Z"/><path class="cls-5" d="M675.05,375.92a5.34,5.34,0,0,1-5.34,5.34h0a5.29,5.29,0,0,1-10.07,2.27,2.8,2.8,0,0,1-.51,0,3,3,0,0,1-3-3,2.89,2.89,0,0,1,0-.36,4.36,4.36,0,0,1,1.74-8.36h0c0-.07,0-.13,0-.2a6,6,0,0,1,11.8-1.1h0A5.34,5.34,0,0,1,675.05,375.92Z"/><path class="cls-5" d="M617.73,337.46a5.34,5.34,0,0,1-5.34,5.34h0a5.29,5.29,0,0,1-10.07,2.27,2.8,2.8,0,0,1-.51,0,3,3,0,0,1-3-3,2.89,2.89,0,0,1,0-.36,4.36,4.36,0,0,1,1.74-8.36h0c0-.07,0-.13,0-.2a6,6,0,0,1,11.8-1.1h0A5.34,5.34,0,0,1,617.73,337.46Z"/></g></g><path class="cls-6" d="M695,360a55,55,0,1,1-40.42-53A54.76,54.76,0,0,1,695,360Z"/></g></svg>