<svg xmlns="http://www.w3.org/2000/svg" width="1280" height="661.21" viewBox="0 0 1280 661.21"><title>tower</title><g id="Warstwa_2" data-name="Warstwa 2"><g id="Warstwa_1-2" data-name="Warstwa 1"><ellipse cx="640" cy="462.34" rx="640" ry="198.87" fill="#a1e2a4"/><path d="M744.27,346.79c-9.55,41.22-111.22,47-163,26.78-29.35-11.46-45.13-43.37-63.59-60.94-29.1-27.7-61.49-39.22-42.36-41.88,102.16-14.21,162.38,6.53,265.59,74.94" fill="#212121"/><path d="M562.06,40.43V345.69c0,19.57,39.91,35.44,89.14,35.44s89.74-15.87,89.74-35.44V40.43ZM674.59,188a217.53,217.53,0,0,1-23.39,1.23A217,217,0,0,1,628.41,188V150.13a219.79,219.79,0,0,0,23.09,1.2,219.79,219.79,0,0,0,23.09-1.2Z" fill="#fff" stroke="#898989" stroke-miterlimit="10" stroke-width="10"/><ellipse cx="651.5" cy="40.44" rx="89.14" ry="35.44" fill="#fff" stroke="#898989" stroke-miterlimit="10" stroke-width="10"/></g></g></svg>